<svg xmlns="http://www.w3.org/2000/svg" width="512" height="512" viewBox="0 0 512 512">
  <defs>
    <linearGradient id="g" x1="0" y1="0" x2="1" y2="1">
      <stop offset="0" stop-color="#10b981"/>
      <stop offset="1" stop-color="#047857"/>
    </linearGradient>
  </defs>
  <rect width="512" height="512" rx="112" fill="url(#g)"/>
  <path d="M248 166 C214 136 166 126 112 130 L112 370 C166 366 214 376 248 402 Z" fill="#ffffff"/>
  <path d="M264 166 C298 136 346 126 400 130 L400 370 C346 366 298 376 264 402 Z" fill="#ffffff"/>
  <path d="M248 166 C214 136 166 126 112 130 L112 160 C166 156 214 166 248 196 Z" fill="#d1fae5"/>
  <path d="M264 166 C298 136 346 126 400 130 L400 160 C346 156 298 166 264 196 Z" fill="#d1fae5"/>
  <rect x="356" y="118" width="34" height="96" rx="6" fill="#065f46"/>
</svg>